<?xml version="1.0" encoding="UTF-8" standalone="no"?>
<!-- Created with Inkscape (http://www.inkscape.org/) -->
<svg id="svg2" xmlns:rdf="http://www.w3.org/1999/02/22-rdf-syntax-ns#" xmlns="http://www.w3.org/2000/svg" height="64" width="64" version="1.1" xmlns:cc="http://creativecommons.org/ns#" xmlns:dc="http://purl.org/dc/elements/1.1/">
 <metadata id="metadata7">
  <rdf:RDF>
   <cc:Work rdf:about="">
    <dc:format>image/svg+xml</dc:format>
    <dc:type rdf:resource="http://purl.org/dc/dcmitype/StillImage"/>
    <dc:title/>
   </cc:Work>
  </rdf:RDF>
 </metadata>
 <g id="layer1" transform="translate(-355.98 -385.43)">
  <path id="path3061" fill="#f37320" d="m384.84 449.28c-8.1406-0.84905-15.491-4.6388-20.995-10.825-8.4276-9.4718-10.287-23.743-4.5856-35.197 6.8882-13.837 22.762-20.859 37.511-16.592 11.98 3.4654 20.672 13.189 22.83 25.542 0.67518 3.8638 0.42901 9.4158-0.58713 13.242-2.4276 9.14-8.9835 17.014-17.449 20.957-5.0379 2.3467-11.358 3.4323-16.725 2.8725z"/>
  <path id="path3059" fill="#fff" d="m398.73 394.34c-1.0828 0.0211-2.1559 0.48165-2.9898 1.4297-1.1835 1.3455-1.4042 2.7162-0.71223 4.3828 1.0358 2.4946 3.9442 3.4226 6.1361 1.9609 1.6769-1.1182 2.4638-3.5702 1.6514-5.1484-0.89738-1.7435-2.5029-2.6558-4.0855-2.625zm-10.895 4.5625c-2.4256 0.0486-5.0634 0.54882-7.1379 1.4141l-0.98616 0.41407 1.4401 2.5859c0.7934 1.4232 1.5785 2.5859 1.7375 2.5859 0.15904 0 1.0048-0.20744 1.8784-0.46094 1.1189-0.32468 2.3204-0.42761 4.0777-0.34375 2.1155 0.10097 2.7947 0.26709 4.4612 1.0859 3.4973 1.7184 6.4369 5.4986 6.8875 8.8516l0.15654 1.1406h3.1228 3.1228l-0.18785-1.3516c-0.4425-3.1072-2.2223-7.0535-4.2186-9.3516-0.98973-1.1393-0.99683-1.1419-2.8489-1.0469-1.4282 0.0733-2.1054-0.0309-2.9585-0.46875-1.4763-0.75774-2.6461-2.0279-3.1072-3.375-0.36828-1.076-0.42039-1.1107-2.3324-1.4609-0.94616-0.1733-2.0047-0.24083-3.1072-0.21875zm-10.402 3.2969c-0.21996-0.004-1.3781 0.98671-2.575 2.2031-2.1341 2.1689-3.7967 4.8071-4.5864 7.2734-0.30595 0.95543-0.27996 1.1251 0.27392 1.7109 2.0296 2.1467 2.1347 5.6291 0.23481 7.7891l-0.82964 0.95312 0.57918 1.6406c0.31829 0.90395 0.99768 2.3565 1.5106 3.2266 0.98269 1.6671 4.8464 5.7357 5.4395 5.7266 0.19139-0.003 1.0007-1.1277 1.7923-2.5l1.4401-2.4922-1.4636-1.4297c-1.7447-1.7009-3.1569-4.4242-3.6003-6.9453-0.65587-3.7292 0.73477-7.9131 3.5846-10.758l1.4949-1.4844-1.4479-2.4531c-0.79721-1.3482-1.6271-2.457-1.8471-2.4609zm-11.482 11.008c-0.9633 0.0352-1.9161 0.41377-2.6924 1.1875-2.0099 2.0034-1.6474 5.1302 0.77483 6.6484 1.2159 0.7621 3.4664 0.64626 4.7273-0.25 0.50706-0.3604 1.0855-1.1792 1.3697-1.9219 0.42186-1.1026 0.44357-1.4603 0.14089-2.4688-0.6246-2.0809-2.4813-3.2625-4.3203-3.1953zm34.484 5.3984-0.21914 1.2812c-0.3438 1.9887-1.8511 4.7504-3.4829 6.375-3.528 3.5123-9.0203 4.5823-13.611 2.6562-0.31683-0.13294-0.81591 0.51278-1.9019 2.4609l-1.4714 2.6328 1.0879 0.5c2.3591 1.0833 4.031 1.351 7.7171 1.25 1.9655-0.0538 3.7947-0.19399 4.0699-0.3125 0.27517-0.11852 0.50091-0.41217 0.50091-0.65625 0-0.80589 1.4064-2.8626 2.3636-3.4531 1.3211-0.81501 3.2785-1.2007 4.5864-0.90625 1.075 0.24202 1.1022 0.22987 2.3715-1.3672 0.70576-0.88801 1.7225-2.5185 2.2541-3.6172 0.92244-1.9065 2.0622-6.3165 1.7219-6.6562-0.0888-0.0886-1.4747-0.16332-3.0759-0.17188l-2.9115-0.0156zm-1.7297 13.57c-0.6657 0.006-1.3092 0.12563-1.7923 0.375-2.8615 1.477-2.992 5.6685-0.22699 7.3516 1.1607 0.70654 3.181 0.68769 4.3751-0.0391 2.5176-1.5322 2.7626-4.741 0.52439-6.8281-0.60311-0.56239-1.7707-0.86862-2.8802-0.85937z"/>
 </g>
</svg>
